# Blender v2.80 (sub 75) OBJ File: 'arrow.blend'
# www.blender.org
mtllib arrow.mtl
o Cylinder_Cylinder.003
v 0.001770 0.006605 -0.822855
v -0.000000 -0.000000 0.730798
v 0.004835 0.004835 -0.822855
v 0.006605 0.001770 -0.822855
v 0.006605 -0.001770 -0.822855
v 0.004835 -0.004835 -0.822855
v 0.001770 -0.006605 -0.822855
v -0.001770 -0.006605 -0.822855
v -0.004835 -0.004835 -0.822855
v -0.006605 -0.001770 -0.822855
v -0.006605 0.001770 -0.822855
v -0.004835 0.004835 -0.822855
v -0.001770 0.006605 -0.822855
v 0.005628 0.021006 0.466166
v 0.015377 0.015377 0.466166
v 0.021006 0.005628 0.466166
v 0.021006 -0.005628 0.466166
v 0.015377 -0.015377 0.466166
v 0.005628 -0.021006 0.466166
v -0.005628 -0.021006 0.466166
v -0.015377 -0.015377 0.466166
v -0.021006 -0.005628 0.466166
v -0.021006 0.005628 0.466166
v -0.015377 0.015377 0.466166
v -0.005628 0.021006 0.466166
v -0.000000 0.082818 0.466468
v -0.082819 -0.000000 0.466468
v 0.000000 -0.082819 0.466468
v 0.082819 -0.000000 0.466468
v 0.014595 0.014595 -0.524562
v 0.019938 0.000000 -0.524562
v 0.014595 -0.014595 -0.524562
v 0.000000 -0.019938 -0.524562
v -0.014595 -0.014595 -0.524562
v -0.019938 0.000000 -0.524562
v -0.014595 0.014595 -0.524562
v -0.000000 0.019938 -0.524562
v -0.000000 0.079769 -0.822898
v -0.079769 -0.000000 -0.822898
v 0.079769 0.000000 -0.822898
v 0.000000 -0.079769 -0.822898
v 0.014552 0.014552 -0.669281
v 0.019878 0.005326 -0.669281
v 0.019878 -0.005326 -0.669281
v 0.014552 -0.014551 -0.669281
v 0.005326 -0.019878 -0.669281
v -0.005326 -0.019878 -0.669281
v -0.014551 -0.014551 -0.669281
v -0.019878 -0.005326 -0.669281
v -0.019878 0.005326 -0.669281
v -0.014552 0.014552 -0.669281
v -0.005326 0.019878 -0.669281
v 0.005326 0.019878 -0.669281
v -0.000000 0.079878 -0.669325
v -0.079878 -0.000000 -0.669325
v 0.079878 0.000000 -0.669325
v 0.000000 -0.079878 -0.669325
vt 1.000000 0.955035
vt 0.916667 1.000000
vt 0.916667 0.955035
vt 0.833333 1.000000
vt 0.833333 0.955035
vt 0.833333 0.955035
vt 0.750000 0.955035
vt 0.666667 1.000000
vt 0.666667 0.955035
vt 0.583333 1.000000
vt 0.583333 0.955035
vt 0.500000 0.955035
vt 0.500000 0.955035
vt 0.416667 1.000000
vt 0.416667 0.955035
vt 0.333333 1.000000
vt 0.333333 0.955035
vt 0.250000 1.000000
vt 0.250000 0.955035
vt 0.250000 0.955035
vt 0.166667 1.000000
vt 0.166667 0.955035
vt 0.083333 1.000000
vt 0.083333 0.955035
vt 0.083333 0.955035
vt 0.990000 0.250000
vt 0.870000 0.042154
vt 0.630000 0.042154
vt 0.083333 0.562169
vt 0.000000 0.955035
vt 0.166667 0.562170
vt 0.250000 0.562169
vt 0.333333 0.562170
vt 0.416667 0.562169
vt 0.500000 0.562169
vt 0.583333 0.562170
vt 0.666667 0.562170
vt 0.750000 0.562170
vt 0.833333 0.562169
vt 0.916667 0.562169
vt 1.000000 0.562169
vt 0.000000 0.955035
vt 1.000000 1.000000
vt 1.000000 0.955035
vt 0.333333 0.955035
vt 0.583333 0.955035
vt 0.500000 1.000000
vt 0.750000 1.000000
vt 0.750000 0.955035
vt 1.000000 0.540089
vt 0.916667 0.540089
vt 0.833333 0.540089
vt 0.957846 0.370000
vt 0.990000 0.250000
vt 0.750000 0.540089
vt 0.666667 0.540089
vt 0.583333 0.540089
vt 0.500000 0.540089
vt 0.500000 0.500000
vt 0.500000 0.540089
vt 0.416667 0.540089
vt 0.333333 0.540089
vt 0.333333 0.540089
vt 0.250000 0.540089
vt 0.166667 0.540089
vt 0.083333 0.540089
vt 1.000000 0.500000
vt 1.000000 0.540089
vt 0.750000 0.490000
vt 0.630000 0.457846
vt 0.750000 0.490000
vt 0.083333 0.540089
vt 0.510000 0.250000
vt 0.542154 0.130000
vt 0.510000 0.250000
vt 0.250000 0.500000
vt 0.250000 0.540089
vt 0.750000 0.500000
vt 0.750000 0.540089
vt 0.833333 0.540089
vt 0.583333 0.540089
vt 0.750000 0.010000
vt 0.750000 0.010000
vt 0.583333 0.500000
vt 0.583333 0.500000
vt 0.833333 0.500000
vt 0.833333 0.500000
vt 0.083333 0.500000
vt 0.083333 0.500000
vt 0.166667 0.500000
vt 0.250000 0.500000
vt 0.333333 0.500000
vt 0.333333 0.500000
vt 0.416667 0.500000
vt 0.500000 0.500000
vt 0.666667 0.500000
vt 0.750000 0.500000
vt 0.916667 0.500000
vt 1.000000 0.500000
vt 0.870000 0.457846
vt 0.957846 0.130000
vt 0.542154 0.370000
vn 0.4984 0.8633 0.0791
vn 0.8633 0.4984 0.0791
vn 0.0905 0.9955 0.0284
vn 0.8633 -0.4984 0.0791
vn 0.4984 -0.8633 0.0791
vn 0.0000 -0.0049 -1.0000
vn -0.4984 -0.8633 0.0791
vn -0.8633 -0.4984 0.0791
vn -0.0905 0.9955 0.0284
vn -0.8633 0.4984 0.0791
vn -0.4984 0.8633 0.0791
vn -0.9955 0.0905 0.0284
vn 0.0000 0.0000 -1.0000
vn -0.0000 1.0000 -0.0011
vn -0.3437 0.9391 -0.0030
vn -0.9391 0.3437 -0.0030
vn -1.0000 -0.0000 -0.0011
vn -0.9391 -0.3437 -0.0030
vn -0.3437 -0.9391 -0.0030
vn 0.0000 -1.0000 -0.0011
vn 0.3437 -0.9391 -0.0030
vn 0.9391 -0.3437 -0.0030
vn 1.0000 0.0000 -0.0011
vn 0.9391 0.3437 -0.0030
vn 0.3437 0.9391 -0.0030
vn -0.0000 0.0049 -1.0000
vn 0.9955 0.0905 0.0284
vn -0.0905 -0.9955 0.0284
vn -0.0049 0.0000 -1.0000
vn 0.9955 -0.0905 0.0284
vn -0.9955 -0.0905 0.0284
vn 0.0905 -0.9955 0.0284
vn 0.0049 0.0000 -1.0000
vn 0.5000 0.8660 -0.0004
vn 0.8660 0.5000 -0.0004
vn -0.0006 0.0000 -1.0000
vn 0.8660 -0.5000 -0.0004
vn 0.5000 -0.8660 -0.0004
vn -0.9961 -0.0884 -0.0001
vn -0.5000 -0.8660 -0.0004
vn -0.8660 -0.5000 -0.0004
vn -0.0884 -0.9954 0.0366
vn -0.8660 0.5000 -0.0004
vn -0.5000 0.8660 -0.0004
vn 0.9961 0.0884 -0.0001
vn 0.0000 -0.0006 -1.0000
vn -0.9954 0.0884 0.0366
vn 0.0006 0.0000 -1.0000
vn -0.0884 0.9961 -0.0001
vn 0.0884 -0.9961 -0.0001
vn 0.0884 0.9954 0.0366
vn 0.9954 -0.0884 0.0366
vn 0.0000 0.0006 -1.0000
vn 0.9994 -0.0242 -0.0252
vn 0.0242 0.9994 -0.0252
vn 0.0884 -0.9954 0.0366
vn -0.0884 0.9954 0.0366
vn -0.9994 0.0242 -0.0252
vn 0.9954 0.0884 0.0366
vn -0.4981 0.8628 -0.0861
vn -0.8628 0.4981 -0.0861
vn -0.0242 -0.9994 -0.0252
vn -0.8628 -0.4981 -0.0861
vn -0.4981 -0.8628 -0.0861
vn -0.9954 -0.0884 0.0366
vn 0.4981 -0.8628 -0.0861
vn 0.8628 -0.4981 -0.0861
vn 0.8628 0.4981 -0.0861
vn 0.4981 0.8628 -0.0861
vn 0.0001 0.0000 -1.0000
vn -0.5000 0.8660 -0.0011
vn -0.8660 0.5000 -0.0011
vn -0.8660 -0.5000 -0.0011
vn -0.5000 -0.8660 -0.0011
vn 0.5000 -0.8660 -0.0011
vn 0.8660 -0.5000 -0.0011
vn 0.8660 0.5000 -0.0011
vn 0.5000 0.8660 -0.0011
vn 0.3437 0.9390 0.0123
vn 0.9390 0.3437 0.0123
vn 0.9390 -0.3437 0.0123
vn 0.3437 -0.9390 0.0123
vn -0.9994 -0.0242 -0.0252
vn -0.3437 -0.9390 0.0123
vn -0.9390 -0.3437 0.0123
vn -0.9390 0.3437 0.0123
vn -0.3437 0.9390 0.0123
vn 0.9994 0.0242 -0.0252
vn -0.0242 0.9994 -0.0252
vn 0.0242 -0.9994 -0.0252
vn 0.9961 -0.0884 -0.0001
vn 0.0884 0.9961 -0.0001
vn -0.9961 0.0884 -0.0001
vn -0.0884 -0.9961 -0.0001
usemtl None
s off
f 14/1/1 2/2/1 15/3/1
f 15/3/2 2/4/2 16/5/2
f 16/5/3 2/4/3 29/6/3
f 17/7/4 2/8/4 18/9/4
f 18/9/5 2/10/5 19/11/5
f 20/12/6 19/11/6 28/13/6
f 20/12/7 2/14/7 21/15/7
f 21/15/8 2/16/8 22/17/8
f 2/18/9 23/19/9 27/20/9
f 23/19/10 2/21/10 24/22/10
f 24/22/11 2/23/11 25/24/11
f 25/24/12 2/23/12 26/25/12
f 5/26/13 7/27/13 9/28/13
f 37/29/14 25/24/14 14/30/14
f 36/31/15 25/24/15 37/29/15
f 23/19/16 36/31/16 35/32/16
f 35/33/17 22/17/17 23/19/17
f 34/34/18 22/17/18 35/33/18
f 20/12/19 34/34/19 33/35/19
f 33/36/20 19/11/20 20/12/20
f 32/37/21 19/11/21 33/36/21
f 17/7/22 32/37/22 31/38/22
f 31/39/23 16/5/23 17/7/23
f 30/40/24 16/5/24 31/39/24
f 14/1/25 30/40/25 37/41/25
f 14/30/26 25/24/26 26/42/26
f 2/43/27 14/1/27 26/44/27
f 22/17/28 2/16/28 27/45/28
f 23/19/29 22/17/29 27/20/29
f 19/11/30 2/10/30 28/46/30
f 2/47/31 20/12/31 28/13/31
f 2/48/32 17/7/32 29/49/32
f 17/7/33 16/5/33 29/49/33
f 53/50/34 30/40/34 42/51/34
f 30/40/35 43/52/35 42/51/35
f 5/26/36 4/53/36 40/54/36
f 44/55/37 32/37/37 45/56/37
f 32/37/38 46/57/38 45/56/38
f 47/58/39 41/59/39 57/60/39
f 47/58/40 34/34/40 48/61/40
f 34/34/41 49/62/41 48/61/41
f 49/62/42 35/33/42 55/63/42
f 50/64/43 36/31/43 51/65/43
f 36/31/44 52/66/44 51/65/44
f 53/50/45 38/67/45 54/68/45
f 1/69/46 13/70/46 38/71/46
f 52/66/47 37/29/47 54/72/47
f 11/73/48 10/74/48 39/75/48
f 50/64/49 39/76/49 55/77/49
f 44/55/50 40/78/50 56/79/50
f 43/52/51 31/39/51 56/80/51
f 46/57/52 33/36/52 57/81/52
f 8/82/53 7/27/53 41/83/53
f 46/57/54 41/84/54 7/85/54
f 43/52/55 40/86/55 4/87/55
f 31/38/56 44/55/56 56/79/56
f 35/32/57 50/64/57 55/77/57
f 52/66/58 38/88/58 13/89/58
f 37/41/59 53/50/59 54/68/59
f 51/65/60 13/89/60 12/90/60
f 50/64/61 12/90/61 11/91/61
f 49/62/62 39/92/62 10/93/62
f 48/61/63 10/93/63 9/94/63
f 47/58/64 9/94/64 8/95/64
f 33/35/65 47/58/65 57/60/65
f 45/56/66 7/85/66 6/96/66
f 44/55/67 6/96/67 5/97/67
f 42/51/68 4/87/68 3/98/68
f 1/99/69 42/51/69 3/98/69
f 13/70/13 1/69/13 3/100/13
f 3/100/13 4/53/13 5/26/13
f 5/26/13 6/101/13 7/27/13
f 7/27/13 8/82/13 9/28/13
f 9/28/70 10/74/70 11/73/70
f 11/73/13 12/102/13 9/28/13
f 12/102/70 13/70/70 9/28/70
f 13/70/13 3/100/13 9/28/13
f 3/100/13 5/26/13 9/28/13
f 36/31/71 24/22/71 25/24/71
f 23/19/72 24/22/72 36/31/72
f 34/34/73 21/15/73 22/17/73
f 20/12/74 21/15/74 34/34/74
f 32/37/75 18/9/75 19/11/75
f 17/7/76 18/9/76 32/37/76
f 30/40/77 15/3/77 16/5/77
f 14/1/78 15/3/78 30/40/78
f 53/50/79 37/41/79 30/40/79
f 30/40/80 31/39/80 43/52/80
f 44/55/81 31/38/81 32/37/81
f 32/37/82 33/36/82 46/57/82
f 47/58/83 8/95/83 41/59/83
f 47/58/84 33/35/84 34/34/84
f 34/34/85 35/33/85 49/62/85
f 50/64/86 35/32/86 36/31/86
f 36/31/87 37/29/87 52/66/87
f 53/50/88 1/99/88 38/67/88
f 50/64/89 11/91/89 39/76/89
f 44/55/90 5/97/90 40/78/90
f 46/57/91 57/81/91 41/84/91
f 43/52/92 56/80/92 40/86/92
f 52/66/93 54/72/93 38/88/93
f 51/65/60 52/66/60 13/89/60
f 50/64/61 51/65/61 12/90/61
f 49/62/94 55/63/94 39/92/94
f 48/61/63 49/62/63 10/93/63
f 47/58/64 48/61/64 9/94/64
f 45/56/66 46/57/66 7/85/66
f 44/55/67 45/56/67 6/96/67
f 42/51/68 43/52/68 4/87/68
f 1/99/69 53/50/69 42/51/69
