# Blender v2.80 (sub 75) OBJ File: 'gameAssets.blend'
# www.blender.org
mtllib tomb1.mtl
o Cube.009_Cube.018
v -0.897381 -0.096645 0.506206
v 0.599676 0.131392 0.338273
v -0.897381 -0.096645 -0.506206
v 0.599676 0.131392 -0.338273
v 0.897381 -0.096645 0.506206
v -0.599676 0.131392 -0.338273
v 0.897381 -0.096645 -0.506206
v -0.599676 0.131392 0.338273
v -0.765741 0.131392 0.431948
v -0.897381 0.082467 0.506206
v -0.765741 0.131392 -0.431948
v -0.897381 0.082467 -0.506206
v 0.765741 0.131392 0.431948
v 0.897381 0.082467 0.506206
v 0.765741 0.131392 -0.431948
v 0.897381 0.082467 -0.506206
v 0.599676 0.226081 0.338273
v -0.599676 0.226081 0.338273
v -0.599676 0.226081 -0.338273
v 0.599676 0.226081 -0.338273
v 0.439578 0.226081 0.084568
v -0.439578 0.226081 0.084568
v -0.439578 0.226081 -0.084569
v 0.439578 0.226081 -0.084569
v 0.439578 1.006325 0.084568
v -0.439578 1.006325 0.084568
v -0.439578 1.006325 -0.084569
v 0.439578 1.006325 -0.084569
v 0.398639 1.085794 0.084568
v -0.398639 1.085794 0.084568
v -0.398639 1.085794 -0.084569
v 0.398639 1.085794 -0.084569
v 0.283817 1.168330 0.084568
v -0.283817 1.168330 0.084568
v -0.283817 1.168330 -0.084569
v 0.283817 1.168330 -0.084569
v 0.179996 1.211453 0.084568
v -0.179996 1.211453 0.084568
v -0.179996 1.211453 -0.084569
v 0.179996 1.211453 -0.084569
v 0.074429 1.227502 0.084568
v -0.074429 1.227502 0.084568
v -0.074429 1.227502 -0.084569
v 0.074429 1.227502 -0.084569
vt 0.520838 0.620953
vt 0.520838 0.456152
vt 0.545181 0.474022
vt 0.545181 0.603083
vt 0.520838 0.456152
vt 0.520838 0.278181
vt 0.783928 0.278181
vt 0.783928 0.456152
vt 0.515357 0.585477
vt 0.515357 0.714538
vt 0.386552 0.714538
vt 0.386552 0.585477
vt 0.783928 0.000000
vt 0.783928 0.177971
vt 0.520838 0.177971
vt 0.520838 0.000000
vt 0.257747 0.228208
vt 0.257747 0.049350
vt 0.520838 0.049350
vt 0.520838 0.228208
vt 0.764631 0.228076
vt 0.540135 0.228076
vt 0.277044 0.000000
vt 0.501541 0.000000
vt 0.540135 0.228076
vt 0.764631 0.228076
vt 0.277044 0.228208
vt 0.501541 0.228208
vt 0.520838 0.277557
vt 0.257747 0.277557
vt 0.257747 0.456415
vt 0.520838 0.456415
vt 0.745335 0.456152
vt 0.745335 0.620953
vt 0.720991 0.603083
vt 0.720991 0.474022
vt 0.433558 0.585477
vt 0.257747 0.585477
vt 0.281216 0.537079
vt 0.410089 0.537079
vt 0.386552 0.585477
vt 0.386552 0.714538
vt 0.257747 0.714538
vt 0.257747 0.585477
vt 1.000000 0.129061
vt 1.000000 0.258123
vt 0.871834 0.258123
vt 0.871834 0.129061
vt 1.000000 0.000000
vt 1.000000 0.129061
vt 0.871834 0.129061
vt 0.871834 0.000000
vt 0.257747 0.456415
vt 0.281216 0.504813
vt 0.433558 0.456415
vt 0.410089 0.504813
vt 0.827881 0.000000
vt 0.871834 0.000000
vt 0.871834 0.775272
vt 0.827881 0.775272
vt 0.128874 0.220863
vt 0.000000 0.220863
vt 0.006001 0.141507
vt 0.122872 0.141507
vt 0.128874 1.000000
vt 0.000000 1.000000
vt 0.257747 1.000000
vt 0.128874 1.000000
vt 0.128874 0.220863
vt 0.257747 0.220863
vt 0.827881 0.999180
vt 0.783929 0.999180
vt 0.783928 0.223909
vt 0.827881 0.223909
vt 0.251746 0.141507
vt 0.134875 0.141507
vt 0.151706 0.059089
vt 0.234915 0.059089
vt 0.783928 0.144481
vt 0.827881 0.144481
vt 0.871834 0.854699
vt 0.827881 0.854699
vt 0.827881 0.938010
vt 0.871834 0.938010
vt 0.871834 0.982037
vt 0.827881 0.982037
vt 0.783928 0.061170
vt 0.827881 0.061170
vt 0.022833 0.059089
vt 0.106041 0.059089
vt 0.871834 0.999180
vt 0.827881 0.999180
vt 0.038052 0.016026
vt 0.090822 0.016026
vt 0.166925 0.016026
vt 0.219696 0.016026
vt 0.783928 0.017144
vt 0.827881 0.017144
vt 0.455379 0.456415
vt 0.455379 0.488681
vt 0.433558 0.488681
vt 0.433558 0.456415
vt 0.053526 0.000000
vt 0.075347 0.000000
vt 0.182400 0.000000
vt 0.204221 0.000000
vt 0.783928 0.000000
vt 0.827881 0.000000
vn 0.0000 1.0000 0.0000
vn 1.0000 0.0000 0.0000
vn 0.0000 0.0000 -1.0000
vn -1.0000 0.0000 0.0000
vn -0.3484 0.9374 0.0000
vn 0.0000 0.8351 -0.5502
vn 0.3484 0.9374 0.0000
vn 0.0000 0.8351 0.5502
vn 0.0000 0.0000 1.0000
vn -0.8890 0.4580 0.0000
vn 0.8890 0.4580 0.0000
vn 0.3836 0.9235 0.0000
vn -0.5837 0.8120 0.0000
vn 0.5837 0.8120 0.0000
vn 0.1503 0.9886 0.0000
vn -0.3836 0.9235 0.0000
vn -0.1503 0.9886 0.0000
usemtl Material
s off
f 9/1/1 13/2/1 2/3/1 8/4/1
f 7/5/2 16/6/2 14/7/2 5/8/2
f 4/9/3 6/10/3 19/11/3 20/12/3
f 1/13/4 10/14/4 12/15/4 3/16/4
f 3/17/3 12/18/3 16/19/3 7/20/3
f 9/21/5 11/22/5 12/15/5 10/14/5
f 11/23/6 15/24/6 16/19/6 12/18/6
f 15/25/7 13/26/7 14/7/7 16/6/7
f 13/27/8 9/28/8 10/29/8 14/30/8
f 5/31/9 14/30/9 10/29/9 1/32/9
f 15/33/1 11/34/1 6/35/1 4/36/1
f 13/2/1 15/33/1 4/36/1 2/3/1
f 11/34/1 9/1/1 8/4/1 6/35/1
f 20/37/1 19/38/1 23/39/1 24/40/1
f 8/41/9 2/42/9 17/43/9 18/44/9
f 2/45/2 4/46/2 20/47/2 17/48/2
f 6/49/4 8/50/4 18/51/4 19/52/4
f 19/38/1 18/53/1 22/54/1 23/39/1
f 17/55/1 20/37/1 24/40/1 21/56/1
f 18/53/1 17/55/1 21/56/1 22/54/1
f 21/57/2 24/58/2 28/59/2 25/60/2
f 26/61/9 25/62/9 29/63/9 30/64/9
f 22/65/9 21/66/9 25/62/9 26/61/9
f 24/67/3 23/68/3 27/69/3 28/70/3
f 23/71/4 22/72/4 26/73/4 27/74/4
f 32/75/3 31/76/3 35/77/3 36/78/3
f 28/70/3 27/69/3 31/76/3 32/75/3
f 27/74/10 26/73/10 30/79/10 31/80/10
f 25/60/11 28/59/11 32/81/11 29/82/11
f 33/83/12 36/84/12 40/85/12 37/86/12
f 31/80/13 30/79/13 34/87/13 35/88/13
f 29/82/14 32/81/14 36/84/14 33/83/14
f 30/64/9 29/63/9 33/89/9 34/90/9
f 37/86/15 40/85/15 44/91/15 41/92/15
f 34/90/9 33/89/9 37/93/9 38/94/9
f 36/78/3 35/77/3 39/95/3 40/96/3
f 35/88/16 34/87/16 38/97/16 39/98/16
f 41/99/1 44/100/1 43/101/1 42/102/1
f 38/94/9 37/93/9 41/103/9 42/104/9
f 40/96/3 39/95/3 43/105/3 44/106/3
f 39/98/17 38/97/17 42/107/17 43/108/17
